<svg xmlns="http://www.w3.org/2000/svg" style="isolation:isolate" viewBox="0 0 1024 1024" width="1024" height="1024"><defs><clipPath id="a"><path d="M0 0h1024v1024h-1024z"/></clipPath></defs><path d="M545.05 5.929c148.921 69.08 300.288 140.418 449.005 209.928 7.936 3.711 18.342 6.236 18.354 17.472.015 11.256-10.379 13.761-18.33 17.477-149.312 69.831-298.644 139.618-448.07 209.203-22.757 10.597-46.13 10.46-68.919-.161-149.703-69.784-299.348-139.693-448.966-209.657-7.7-3.598-17.39-6.327-17.089-17.277.282-10.245 9.549-12.907 16.96-16.372 150.244-70.199 302.011-141.51 452.451-211.282 15.902-7.364 48.032-6.863 64.604.669zm-33.52 1018.071c-10.832 0-18.952-4.111-34.428-9.901-149.492-69.345-298.8-139.086-448.097-208.851-7.936-3.707-18.212-6.326-18.118-17.633.098-11.247 10.382-13.729 18.318-17.503 24.766-11.776 49.657-23.286 74.536-34.816 24.856-11.522 49.552-11.361 74.482.325 98.966 46.392 198.042 92.553 297.051 138.844 24.582 11.494 48.96 11.255 73.515-.247 99.283-46.494 198.617-92.89 297.959-139.266 23.458-10.951 47.226-11.256 70.794-.576 26.5 12.007 52.808 24.445 79.136 36.82 3.904 1.836 7.862 3.907 11.131 6.659 7.035 5.928 7.129 13.957-.051 19.708-4.365 3.496-9.588 6.072-14.709 8.461-148.09 69.188-296.162 138.42-444.452 207.182-11.526 5.34-26.234 10.794-37.067 10.794zm-.524-277.268c-4.953 0-24.199-5.254-35.149-10.34-148.877-69.138-297.555-138.702-446.245-208.24-7.987-3.735-18.4-6.146-18.608-17.273-.219-11.803 10.68-14.164 18.902-18.075 25.04-11.921 50.15-23.709 75.351-35.289 23.896-10.978 47.832-10.719 71.71.434 99.968 46.694 199.932 93.399 299.975 139.94 23.157 10.774 46.674 10.692 69.85-.098 100.329-46.717 200.586-93.579 300.899-140.327 23.196-10.809 46.627-10.801 69.839-.211 26.449 12.065 52.734 24.495 79.047 36.855 3.613 1.699 7.317 3.492 10.413 5.951 7.983 6.342 7.92 14.716-.156 21.066-3.109 2.443-6.8 4.248-10.418 5.939-150.212 70.222-300.398 140.507-450.794 210.33-10.34 4.804-29.668 9.338-34.616 9.338z" clip-path="url(#a)"/></svg>